<mxfile host="app.diagrams.net" modified="2024-07-21T20:48:06.598Z" agent="Mozilla/5.0 (Windows NT 10.0; Win64; x64) AppleWebKit/537.36 (KHTML, like Gecko) Chrome/126.0.0.0 Safari/537.36" etag="xA9DifdgBp2jojHvsDh2" version="24.6.5" type="github">
  <diagram name="Página-1" id="kxw706e_lVqUMvJ54Nke">
    <mxGraphModel dx="1047" dy="596" grid="1" gridSize="10" guides="1" tooltips="1" connect="1" arrows="1" fold="1" page="1" pageScale="1" pageWidth="3300" pageHeight="4681" math="0" shadow="0">
      <root>
        <mxCell id="0" />
        <mxCell id="1" parent="0" />
        <mxCell id="7IVnwnWDkIYmJTcqtTQx-1" value="Cliente" style="swimlane;fontStyle=0;childLayout=stackLayout;horizontal=1;startSize=30;horizontalStack=0;resizeParent=1;resizeParentMax=0;resizeLast=0;collapsible=1;marginBottom=0;whiteSpace=wrap;html=1;" vertex="1" parent="1">
          <mxGeometry x="70" y="120" width="140" height="150" as="geometry">
            <mxRectangle x="70" y="120" width="80" height="30" as="alternateBounds" />
          </mxGeometry>
        </mxCell>
        <mxCell id="7IVnwnWDkIYmJTcqtTQx-2" value="Id" style="text;strokeColor=none;fillColor=none;align=left;verticalAlign=middle;spacingLeft=4;spacingRight=4;overflow=hidden;points=[[0,0.5],[1,0.5]];portConstraint=eastwest;rotatable=0;whiteSpace=wrap;html=1;" vertex="1" parent="7IVnwnWDkIYmJTcqtTQx-1">
          <mxGeometry y="30" width="140" height="30" as="geometry" />
        </mxCell>
        <mxCell id="7IVnwnWDkIYmJTcqtTQx-3" value="Nome" style="text;strokeColor=none;fillColor=none;align=left;verticalAlign=middle;spacingLeft=4;spacingRight=4;overflow=hidden;points=[[0,0.5],[1,0.5]];portConstraint=eastwest;rotatable=0;whiteSpace=wrap;html=1;" vertex="1" parent="7IVnwnWDkIYmJTcqtTQx-1">
          <mxGeometry y="60" width="140" height="30" as="geometry" />
        </mxCell>
        <mxCell id="7IVnwnWDkIYmJTcqtTQx-4" value="E-mail" style="text;strokeColor=none;fillColor=none;align=left;verticalAlign=middle;spacingLeft=4;spacingRight=4;overflow=hidden;points=[[0,0.5],[1,0.5]];portConstraint=eastwest;rotatable=0;whiteSpace=wrap;html=1;" vertex="1" parent="7IVnwnWDkIYmJTcqtTQx-1">
          <mxGeometry y="90" width="140" height="30" as="geometry" />
        </mxCell>
        <mxCell id="7IVnwnWDkIYmJTcqtTQx-6" value="CPF" style="text;strokeColor=none;fillColor=none;align=left;verticalAlign=middle;spacingLeft=4;spacingRight=4;overflow=hidden;points=[[0,0.5],[1,0.5]];portConstraint=eastwest;rotatable=0;whiteSpace=wrap;html=1;" vertex="1" parent="7IVnwnWDkIYmJTcqtTQx-1">
          <mxGeometry y="120" width="140" height="30" as="geometry" />
        </mxCell>
        <mxCell id="7IVnwnWDkIYmJTcqtTQx-8" value="PropostaCredito" style="swimlane;fontStyle=0;childLayout=stackLayout;horizontal=1;startSize=30;horizontalStack=0;resizeParent=1;resizeParentMax=0;resizeLast=0;collapsible=1;marginBottom=0;whiteSpace=wrap;html=1;" vertex="1" parent="1">
          <mxGeometry x="400" y="90" width="190" height="150" as="geometry" />
        </mxCell>
        <mxCell id="7IVnwnWDkIYmJTcqtTQx-9" value="Id" style="text;strokeColor=none;fillColor=none;align=left;verticalAlign=middle;spacingLeft=4;spacingRight=4;overflow=hidden;points=[[0,0.5],[1,0.5]];portConstraint=eastwest;rotatable=0;whiteSpace=wrap;html=1;" vertex="1" parent="7IVnwnWDkIYmJTcqtTQx-8">
          <mxGeometry y="30" width="190" height="30" as="geometry" />
        </mxCell>
        <mxCell id="7IVnwnWDkIYmJTcqtTQx-14" value="IdCliente" style="text;strokeColor=none;fillColor=none;align=left;verticalAlign=middle;spacingLeft=4;spacingRight=4;overflow=hidden;points=[[0,0.5],[1,0.5]];portConstraint=eastwest;rotatable=0;whiteSpace=wrap;html=1;" vertex="1" parent="7IVnwnWDkIYmJTcqtTQx-8">
          <mxGeometry y="60" width="190" height="30" as="geometry" />
        </mxCell>
        <mxCell id="7IVnwnWDkIYmJTcqtTQx-10" value="Limite" style="text;strokeColor=none;fillColor=none;align=left;verticalAlign=middle;spacingLeft=4;spacingRight=4;overflow=hidden;points=[[0,0.5],[1,0.5]];portConstraint=eastwest;rotatable=0;whiteSpace=wrap;html=1;" vertex="1" parent="7IVnwnWDkIYmJTcqtTQx-8">
          <mxGeometry y="90" width="190" height="30" as="geometry" />
        </mxCell>
        <mxCell id="7IVnwnWDkIYmJTcqtTQx-74" value="Aprovado" style="text;strokeColor=none;fillColor=none;align=left;verticalAlign=middle;spacingLeft=4;spacingRight=4;overflow=hidden;points=[[0,0.5],[1,0.5]];portConstraint=eastwest;rotatable=0;whiteSpace=wrap;html=1;" vertex="1" parent="7IVnwnWDkIYmJTcqtTQx-8">
          <mxGeometry y="120" width="190" height="30" as="geometry" />
        </mxCell>
        <mxCell id="7IVnwnWDkIYmJTcqtTQx-15" style="edgeStyle=orthogonalEdgeStyle;rounded=0;orthogonalLoop=1;jettySize=auto;html=1;exitX=1;exitY=0.5;exitDx=0;exitDy=0;" edge="1" parent="1" source="7IVnwnWDkIYmJTcqtTQx-2" target="7IVnwnWDkIYmJTcqtTQx-14">
          <mxGeometry relative="1" as="geometry" />
        </mxCell>
        <mxCell id="7IVnwnWDkIYmJTcqtTQx-23" value="CartaoCredito" style="swimlane;fontStyle=0;childLayout=stackLayout;horizontal=1;startSize=30;horizontalStack=0;resizeParent=1;resizeParentMax=0;resizeLast=0;collapsible=1;marginBottom=0;whiteSpace=wrap;html=1;" vertex="1" parent="1">
          <mxGeometry x="400" y="360" width="190" height="180" as="geometry" />
        </mxCell>
        <mxCell id="7IVnwnWDkIYmJTcqtTQx-24" value="Id" style="text;strokeColor=none;fillColor=none;align=left;verticalAlign=middle;spacingLeft=4;spacingRight=4;overflow=hidden;points=[[0,0.5],[1,0.5]];portConstraint=eastwest;rotatable=0;whiteSpace=wrap;html=1;" vertex="1" parent="7IVnwnWDkIYmJTcqtTQx-23">
          <mxGeometry y="30" width="190" height="30" as="geometry" />
        </mxCell>
        <mxCell id="7IVnwnWDkIYmJTcqtTQx-27" value="IdPropostaCredito" style="text;strokeColor=none;fillColor=none;align=left;verticalAlign=middle;spacingLeft=4;spacingRight=4;overflow=hidden;points=[[0,0.5],[1,0.5]];portConstraint=eastwest;rotatable=0;whiteSpace=wrap;html=1;" vertex="1" parent="7IVnwnWDkIYmJTcqtTQx-23">
          <mxGeometry y="60" width="190" height="30" as="geometry" />
        </mxCell>
        <mxCell id="7IVnwnWDkIYmJTcqtTQx-76" value="NumeroCartao" style="text;strokeColor=none;fillColor=none;align=left;verticalAlign=middle;spacingLeft=4;spacingRight=4;overflow=hidden;points=[[0,0.5],[1,0.5]];portConstraint=eastwest;rotatable=0;whiteSpace=wrap;html=1;" vertex="1" parent="7IVnwnWDkIYmJTcqtTQx-23">
          <mxGeometry y="90" width="190" height="30" as="geometry" />
        </mxCell>
        <mxCell id="7IVnwnWDkIYmJTcqtTQx-25" value="Vencimento" style="text;strokeColor=none;fillColor=none;align=left;verticalAlign=middle;spacingLeft=4;spacingRight=4;overflow=hidden;points=[[0,0.5],[1,0.5]];portConstraint=eastwest;rotatable=0;whiteSpace=wrap;html=1;" vertex="1" parent="7IVnwnWDkIYmJTcqtTQx-23">
          <mxGeometry y="120" width="190" height="30" as="geometry" />
        </mxCell>
        <mxCell id="7IVnwnWDkIYmJTcqtTQx-26" value="CVV" style="text;strokeColor=none;fillColor=none;align=left;verticalAlign=middle;spacingLeft=4;spacingRight=4;overflow=hidden;points=[[0,0.5],[1,0.5]];portConstraint=eastwest;rotatable=0;whiteSpace=wrap;html=1;" vertex="1" parent="7IVnwnWDkIYmJTcqtTQx-23">
          <mxGeometry y="150" width="190" height="30" as="geometry" />
        </mxCell>
        <mxCell id="7IVnwnWDkIYmJTcqtTQx-37" style="edgeStyle=orthogonalEdgeStyle;rounded=0;orthogonalLoop=1;jettySize=auto;html=1;entryX=0;entryY=0.5;entryDx=0;entryDy=0;" edge="1" parent="1" source="7IVnwnWDkIYmJTcqtTQx-30" target="7IVnwnWDkIYmJTcqtTQx-33">
          <mxGeometry relative="1" as="geometry" />
        </mxCell>
        <mxCell id="7IVnwnWDkIYmJTcqtTQx-30" value="Cliente" style="shape=umlActor;verticalLabelPosition=bottom;verticalAlign=top;html=1;" vertex="1" parent="1">
          <mxGeometry x="70" y="780" width="30" height="60" as="geometry" />
        </mxCell>
        <mxCell id="7IVnwnWDkIYmJTcqtTQx-38" style="edgeStyle=orthogonalEdgeStyle;rounded=0;orthogonalLoop=1;jettySize=auto;html=1;" edge="1" parent="1" source="7IVnwnWDkIYmJTcqtTQx-33" target="7IVnwnWDkIYmJTcqtTQx-34">
          <mxGeometry relative="1" as="geometry" />
        </mxCell>
        <mxCell id="7IVnwnWDkIYmJTcqtTQx-33" value="Cadastro Novo Cliente" style="html=1;whiteSpace=wrap;" vertex="1" parent="1">
          <mxGeometry x="170" y="780" width="110" height="60" as="geometry" />
        </mxCell>
        <mxCell id="7IVnwnWDkIYmJTcqtTQx-34" value="Envia mensagem para fila&amp;nbsp;&lt;div&gt;&lt;span style=&quot;font-family: monospace; text-align: left;&quot;&gt;cliente_registrado_queue&lt;/span&gt;&lt;br&gt;&lt;/div&gt;" style="html=1;whiteSpace=wrap;" vertex="1" parent="1">
          <mxGeometry x="145" y="900" width="160" height="90" as="geometry" />
        </mxCell>
        <mxCell id="7IVnwnWDkIYmJTcqtTQx-51" value="" style="edgeStyle=orthogonalEdgeStyle;rounded=0;orthogonalLoop=1;jettySize=auto;html=1;" edge="1" parent="1" source="7IVnwnWDkIYmJTcqtTQx-42" target="7IVnwnWDkIYmJTcqtTQx-50">
          <mxGeometry relative="1" as="geometry" />
        </mxCell>
        <mxCell id="7IVnwnWDkIYmJTcqtTQx-42" value="Solicita proposta de crédito" style="whiteSpace=wrap;html=1;strokeWidth=2;" vertex="1" parent="1">
          <mxGeometry x="700" y="940" width="120" height="60" as="geometry" />
        </mxCell>
        <mxCell id="7IVnwnWDkIYmJTcqtTQx-47" value="" style="edgeStyle=orthogonalEdgeStyle;rounded=0;orthogonalLoop=1;jettySize=auto;html=1;" edge="1" parent="1" source="7IVnwnWDkIYmJTcqtTQx-44" target="7IVnwnWDkIYmJTcqtTQx-46">
          <mxGeometry relative="1" as="geometry" />
        </mxCell>
        <mxCell id="7IVnwnWDkIYmJTcqtTQx-44" value="Consome mensagem da fila&lt;div&gt;&lt;span style=&quot;font-family: monospace; text-align: left;&quot;&gt;cliente_registrado_queue&lt;/span&gt;&lt;br&gt;&lt;/div&gt;" style="whiteSpace=wrap;html=1;" vertex="1" parent="1">
          <mxGeometry x="468.75" y="790" width="165" height="90" as="geometry" />
        </mxCell>
        <mxCell id="7IVnwnWDkIYmJTcqtTQx-49" style="edgeStyle=orthogonalEdgeStyle;rounded=0;orthogonalLoop=1;jettySize=auto;html=1;entryX=0.5;entryY=0;entryDx=0;entryDy=0;" edge="1" parent="1" source="7IVnwnWDkIYmJTcqtTQx-46" target="7IVnwnWDkIYmJTcqtTQx-42">
          <mxGeometry relative="1" as="geometry" />
        </mxCell>
        <mxCell id="7IVnwnWDkIYmJTcqtTQx-46" value="Sucesso" style="rhombus;whiteSpace=wrap;html=1;" vertex="1" parent="1">
          <mxGeometry x="720" y="795" width="80" height="80" as="geometry" />
        </mxCell>
        <mxCell id="7IVnwnWDkIYmJTcqtTQx-50" value="Envia mensagem para fila&lt;div&gt;&lt;span style=&quot;font-family: monospace; text-align: left;&quot;&gt;limite_credito_gerado_queue&lt;/span&gt;&lt;br&gt;&lt;/div&gt;" style="whiteSpace=wrap;html=1;strokeWidth=2;" vertex="1" parent="1">
          <mxGeometry x="666.88" y="1060" width="186.25" height="110" as="geometry" />
        </mxCell>
        <mxCell id="7IVnwnWDkIYmJTcqtTQx-52" value="Proposta de Crédito" style="text;html=1;align=center;verticalAlign=middle;resizable=0;points=[];autosize=1;strokeColor=none;fillColor=none;strokeWidth=2;fontSize=15;" vertex="1" parent="1">
          <mxGeometry x="471.25" y="730" width="160" height="30" as="geometry" />
        </mxCell>
        <mxCell id="7IVnwnWDkIYmJTcqtTQx-62" value="Cartão de Crédito" style="text;html=1;align=center;verticalAlign=middle;resizable=0;points=[];autosize=1;strokeColor=none;fillColor=none;strokeWidth=2;fontSize=15;" vertex="1" parent="1">
          <mxGeometry x="1117" y="730" width="140" height="30" as="geometry" />
        </mxCell>
        <mxCell id="7IVnwnWDkIYmJTcqtTQx-65" style="edgeStyle=orthogonalEdgeStyle;rounded=0;orthogonalLoop=1;jettySize=auto;html=1;entryX=0;entryY=0.5;entryDx=0;entryDy=0;" edge="1" parent="1" source="7IVnwnWDkIYmJTcqtTQx-63" target="7IVnwnWDkIYmJTcqtTQx-64">
          <mxGeometry relative="1" as="geometry" />
        </mxCell>
        <mxCell id="7IVnwnWDkIYmJTcqtTQx-63" value="Consome mensagem da fila&lt;div&gt;&lt;span style=&quot;font-family: monospace; text-align: left;&quot;&gt;limite_credito_gerado_queue&lt;/span&gt;&lt;br&gt;&lt;/div&gt;" style="whiteSpace=wrap;html=1;" vertex="1" parent="1">
          <mxGeometry x="1117" y="790" width="193" height="110" as="geometry" />
        </mxCell>
        <mxCell id="7IVnwnWDkIYmJTcqtTQx-67" value="" style="edgeStyle=orthogonalEdgeStyle;rounded=0;orthogonalLoop=1;jettySize=auto;html=1;" edge="1" parent="1" source="7IVnwnWDkIYmJTcqtTQx-64" target="7IVnwnWDkIYmJTcqtTQx-66">
          <mxGeometry relative="1" as="geometry" />
        </mxCell>
        <mxCell id="7IVnwnWDkIYmJTcqtTQx-64" value="Sucesso" style="rhombus;whiteSpace=wrap;html=1;" vertex="1" parent="1">
          <mxGeometry x="1397" y="805" width="80" height="80" as="geometry" />
        </mxCell>
        <mxCell id="7IVnwnWDkIYmJTcqtTQx-69" style="edgeStyle=orthogonalEdgeStyle;rounded=0;orthogonalLoop=1;jettySize=auto;html=1;entryX=0.5;entryY=0;entryDx=0;entryDy=0;" edge="1" parent="1" source="7IVnwnWDkIYmJTcqtTQx-66" target="7IVnwnWDkIYmJTcqtTQx-68">
          <mxGeometry relative="1" as="geometry" />
        </mxCell>
        <mxCell id="7IVnwnWDkIYmJTcqtTQx-66" value="Emite cartão de crédito" style="whiteSpace=wrap;html=1;" vertex="1" parent="1">
          <mxGeometry x="1367" y="965" width="140" height="75" as="geometry" />
        </mxCell>
        <mxCell id="7IVnwnWDkIYmJTcqtTQx-68" value="Envia mensagem para fila&lt;div&gt;&lt;span style=&quot;font-family: monospace; text-align: left;&quot;&gt;cartao_credito_gerado_queue&lt;/span&gt;&lt;br&gt;&lt;/div&gt;" style="whiteSpace=wrap;html=1;strokeWidth=2;" vertex="1" parent="1">
          <mxGeometry x="1342.22" y="1130" width="189.56" height="120" as="geometry" />
        </mxCell>
        <mxCell id="7IVnwnWDkIYmJTcqtTQx-75" value="&lt;h3&gt;Fluxo de Comunicação&lt;/h3&gt;&lt;ol&gt;&lt;li&gt;&lt;p&gt;&lt;strong&gt;Cadastro de Cliente&lt;/strong&gt;:&lt;/p&gt;&lt;ul&gt;&lt;li&gt;Quando um novo cliente é cadastrado, a API&amp;nbsp;&lt;strong&gt;Produtor -&amp;gt; Clientes&lt;/strong&gt; envia uma mensagem para uma fila do RabbitMQ (&lt;code&gt;cliente_registrado_queue&lt;/code&gt;).&lt;/li&gt;&lt;/ul&gt;&lt;/li&gt;&lt;li&gt;&lt;p&gt;&lt;strong&gt;Proposta de Crédito&lt;/strong&gt;:&lt;/p&gt;&lt;ul&gt;&lt;li&gt;O microserviço &lt;strong&gt;Consumidor Proposta Crédito&lt;/strong&gt; consome mensagens da fila&amp;nbsp;&lt;span style=&quot;font-family: monospace;&quot;&gt;cliente_registrado_queue&lt;/span&gt;.&lt;/li&gt;&lt;li&gt;Após gerar a proposta de crédito, envia uma mensagem para a fila &lt;code&gt;limite_credito_gerado_queue&lt;/code&gt;.&lt;/li&gt;&lt;/ul&gt;&lt;/li&gt;&lt;li&gt;&lt;p&gt;&lt;strong&gt;Cartão de Crédito&lt;/strong&gt;:&lt;/p&gt;&lt;ul&gt;&lt;li&gt;O microserviço &lt;strong&gt;Consumidor Cartão de Crédito&lt;/strong&gt; consome mensagens da fila&amp;nbsp;&lt;span style=&quot;font-family: monospace;&quot;&gt;limite_credito_gerado_queue&lt;/span&gt;.&lt;/li&gt;&lt;li&gt;Após a emissão do(s) cartão(ões), envia uma mensagem para a fila &lt;code&gt;cartao_credito_gerado_queue&lt;/code&gt;.&lt;/li&gt;&lt;/ul&gt;&lt;/li&gt;&lt;/ol&gt;" style="text;whiteSpace=wrap;html=1;" vertex="1" parent="1">
          <mxGeometry x="60" y="1360" width="690" height="370" as="geometry" />
        </mxCell>
        <mxCell id="7IVnwnWDkIYmJTcqtTQx-78" style="edgeStyle=orthogonalEdgeStyle;rounded=0;orthogonalLoop=1;jettySize=auto;html=1;entryX=1;entryY=0.5;entryDx=0;entryDy=0;exitX=1;exitY=0.5;exitDx=0;exitDy=0;" edge="1" parent="1" source="7IVnwnWDkIYmJTcqtTQx-9" target="7IVnwnWDkIYmJTcqtTQx-24">
          <mxGeometry relative="1" as="geometry" />
        </mxCell>
        <mxCell id="7IVnwnWDkIYmJTcqtTQx-84" value="API Cadastro Cliente" style="text;html=1;align=center;verticalAlign=middle;resizable=0;points=[];autosize=1;fontColor=#FFFFFF;labelBackgroundColor=none;" vertex="1" parent="1">
          <mxGeometry x="910" y="250" width="140" height="30" as="geometry" />
        </mxCell>
        <mxCell id="7IVnwnWDkIYmJTcqtTQx-86" value="Proposta Credito" style="text;html=1;align=center;verticalAlign=middle;resizable=0;points=[];autosize=1;fontColor=#FFFFFF;labelBackgroundColor=none;" vertex="1" parent="1">
          <mxGeometry x="1477.45" y="160" width="110" height="30" as="geometry" />
        </mxCell>
        <mxCell id="7IVnwnWDkIYmJTcqtTQx-87" value="Cartão Crédito" style="text;html=1;align=center;verticalAlign=middle;resizable=0;points=[];autosize=1;fontColor=#FFFFFF;labelBackgroundColor=none;" vertex="1" parent="1">
          <mxGeometry x="1482" y="260" width="100" height="30" as="geometry" />
        </mxCell>
      </root>
    </mxGraphModel>
  </diagram>
</mxfile>
